<?xml version="1.0" encoding="UTF-8" standalone="no"?>
<!-- Created with Inkscape (http://www.inkscape.org/) -->

<svg
   width="180mm"
   height="50mm"
   viewBox="0 0 180 50"
   version="1.1"
   id="svg1"
   xml:space="preserve"
   inkscape:version="1.3 (0e150ed6c4, 2023-07-21)"
   sodipodi:docname="logo-alfacell.svg"
   xmlns:inkscape="http://www.inkscape.org/namespaces/inkscape"
   xmlns:sodipodi="http://sodipodi.sourceforge.net/DTD/sodipodi-0.dtd"
   xmlns="http://www.w3.org/2000/svg"
   xmlns:svg="http://www.w3.org/2000/svg"><sodipodi:namedview
     id="namedview1"
     pagecolor="#ffffff"
     bordercolor="#000000"
     borderopacity="0.25"
     inkscape:showpageshadow="2"
     inkscape:pageopacity="0.0"
     inkscape:pagecheckerboard="0"
     inkscape:deskcolor="#d1d1d1"
     inkscape:document-units="mm"
     inkscape:zoom="1.044997"
     inkscape:cx="316.26887"
     inkscape:cy="250.23996"
     inkscape:window-width="1600"
     inkscape:window-height="829"
     inkscape:window-x="1912"
     inkscape:window-y="-8"
     inkscape:window-maximized="1"
     inkscape:current-layer="layer1" /><defs
     id="defs1" /><g
     inkscape:label="Camada 1"
     inkscape:groupmode="layer"
     id="layer1"><path
       style="fill:#ffff00;stroke:none;stroke-width:0.239664;stroke-linecap:round;stroke-linejoin:bevel;paint-order:fill markers stroke"
       d="m 18.129672,43.490546 c -0.06237,-0.355573 -0.0835,-1.674888 -0.04699,-2.931804 l 0.06641,-2.28531 1.178913,-0.305357 c 1.607322,-0.416313 67.019721,-0.467765 108.951375,-0.08568 l 34.2513,0.312088 -0.0629,2.85336 -0.0629,2.853357 -72.080914,0.117918 c -61.087464,0.09994 -72.098219,0.01946 -72.194313,-0.528568 z"
       id="path2"
       inkscape:label="linha-amarela" /><path
       style="fill:#ff0000"
       d="m 4.8716741,45.836563 c -0.04989,-0.13097 -0.06864,-9.4107 -0.04165,-20.62163 l 0.04907,-20.3835009 85.2011319,-0.04784 85.201124,-0.04784 V 25.405215 46.074675 H 90.121876 c -67.952208,0 -85.1778169,-0.0481 -85.2502019,-0.23812 z M 159.24013,42.553613 c 0.17799,-0.0671 0.23095,-0.47764 0.1905,-1.4768 l -0.056,-1.38388 -69.151494,-0.0953 c -39.2292,-0.054 -69.254546,-0.0233 -69.389633,0.071 -0.283477,0.19786 -0.331301,2.61717 -0.05715,2.89133 0.184108,0.18411 137.975277,0.1778 138.463817,-0.006 z m -53.25609,-6.90867 c 0.13258,-0.10684 0.52544,-0.2551 0.87301,-0.32946 0.34758,-0.0744 0.86193,-0.25519 1.143,-0.40183 0.28108,-0.14664 0.58794,-0.26715 0.68193,-0.26779 0.40051,-0.003 1.86581,-1.4285 2.21862,-2.15874 0.47568,-0.98454 0.72664,-3.84868 0.39202,-4.47394 -0.21844,-0.40815 -0.3059,-0.417 -4.12359,-0.417 -4.69805,0 -4.4539,-0.13112 -4.53061,2.43316 -0.0312,1.04249 -0.14541,1.85137 -0.2805,1.98647 -0.26237,0.26237 -1.51737,0.27327 -1.77523,0.0154 -0.099,-0.099 -0.15187,-2.6625 -0.12306,-5.97142 l 0.0505,-5.797878 0.8355,-0.05984 c 0.45953,-0.03291 0.91592,0.02057 1.0142,0.118845 0.18289,0.182887 0.32092,1.599914 0.33754,3.465246 0.005,0.57626 0.0828,1.16373 0.17266,1.30549 0.22299,0.35189 8.20954,0.3258 8.45594,-0.0276 0.0882,-0.12657 0.12042,-1.17309 0.0715,-2.32562 -0.0678,-1.598589 -0.18134,-2.280966 -0.47868,-2.877629 -1.26231,-2.533073 -4.73973,-3.64497 -10.7534,-3.438373 -1.551654,0.05331 -2.923254,0.177732 -3.047994,0.276499 -0.12473,0.09877 -0.55629,0.239008 -0.95901,0.311647 -0.98092,0.176927 -2.70559,1.129398 -3.46963,1.916148 -1.04316,1.07417 -1.22717,2.119855 -1.22899,6.984278 -0.002,5.33905 0.21682,6.45558 1.5256,7.78416 0.88813,0.90158 1.71433,1.36777 2.85826,1.61284 0.36629,0.0785 0.75389,0.21302 0.86132,0.29899 0.31633,0.25315 1.86806,0.33129 5.564354,0.28021 1.99956,-0.0276 3.57598,-0.13043 3.71475,-0.24226 z m -77.736066,-0.17253 c 0.191606,-0.1734 0.349676,-0.53774 0.351267,-0.80963 0.0016,-0.27189 0.117843,-0.88011 0.25834,-1.3516 l 0.255448,-0.85725 1.04245,-0.0562 1.042451,-0.0562 0.22321,0.74501 c 0.122765,0.40975 0.223209,1.05041 0.223209,1.42367 0,1.24076 0.131647,1.27773 4.537983,1.27447 2.166597,-0.002 4.056955,-0.0775 4.200794,-0.16858 0.295942,-0.18747 0.23504,-0.79509 -0.259674,-2.59076 -0.173196,-0.62865 -0.397215,-1.52876 -0.497821,-2.00025 -0.176714,-0.82816 -0.390028,-1.62164 -1.017331,-3.78425 -0.163048,-0.5621 -0.29645,-1.15067 -0.29645,-1.30793 0,-0.15726 -0.136199,-0.72606 -0.302665,-1.264 -0.742663,-2.39993 -0.840335,-2.768242 -0.840335,-3.168818 0,-0.233813 -0.124065,-0.822383 -0.275699,-1.307932 -0.151634,-0.48555 -0.43024,-1.42789 -0.619125,-2.094089 -0.259419,-0.914975 -0.451308,-1.252819 -0.784453,-1.381125 -0.242564,-0.09342 -2.878608,-0.169854 -5.857875,-0.169854 -5.162849,0 -5.434715,0.01787 -5.797849,0.381 -0.20955,0.20955 -0.381,0.538162 -0.381,0.73025 0,0.192087 -0.06318,0.412433 -0.140407,0.489657 -0.07722,0.07722 -0.244553,0.713017 -0.371843,1.412875 -0.12729,0.699857 -0.366261,1.82968 -0.531047,2.510716 -0.164785,0.68104 -0.419369,1.79546 -0.565741,2.4765 -0.146372,0.68104 -0.405015,1.83833 -0.574763,2.57175 -0.169748,0.73343 -0.430051,1.89071 -0.57845,2.57175 -0.599029,2.74908 -0.833561,3.74536 -1.031142,4.38024 -0.274199,0.88108 -0.262434,1.06172 0.09225,1.41641 0.458904,0.4589 7.987182,0.44479 8.496269,-0.0159 z m 0.839988,-8.11435 c 0.07124,-0.65485 0.197502,-1.2772 0.280575,-1.38301 0.08307,-0.10582 0.212978,-0.73982 0.288676,-1.4089 l 0.137633,-1.21652 0.286209,0.54625 c 0.157415,0.30044 0.3547,1.22565 0.438412,2.05604 0.08371,0.83038 0.242467,1.60005 0.352792,1.71037 0.110325,0.11033 0.20059,0.3549 0.20059,0.54349 0,0.28901 -0.166156,0.3429 -1.057209,0.3429 h -1.05721 z m 25.881837,8.00624 c 0.367953,-0.52533 0.419921,-3.37755 0.06795,-3.72952 -0.151969,-0.15197 -0.982133,-0.2286 -2.4765,-0.2286 h -2.2479 v -7.01258 c 0,-6.793917 -0.01211,-7.025576 -0.388421,-7.429497 -0.373287,-0.400677 -0.529644,-0.416921 -4.013024,-0.416921 -2.134229,0 -3.776114,0.08109 -3.99308,0.197202 -0.356488,0.190787 -0.368476,0.496338 -0.368476,9.391646 0,6.89724 0.05711,9.25157 0.2286,9.42305 0.168631,0.16863 1.8899,0.2286 6.561449,0.2286 6.328232,0 6.333064,-3.1e-4 6.6294,-0.42338 z m 10.125895,0.0723 c 0.250508,-0.29257 0.297597,-0.90379 0.282523,-3.66712 -0.01,-1.8303 0.06387,-3.44262 0.164829,-3.59856 0.146662,-0.22652 0.590599,-0.2724 2.239738,-0.23146 1.13125,0.0281 2.167381,-0.0234 2.302512,-0.1144 0.178479,-0.12019 0.230594,-0.65619 0.1905,-1.95929 l -0.05519,-1.79383 -2.27871,-0.054 c -1.529397,-0.0362 -2.327129,-0.13022 -2.425958,-0.28575 -0.191333,-0.3011 -0.191055,-2.258283 3.63e-4,-2.559545 0.101217,-0.1593 0.953508,-0.249112 2.711708,-0.28575 l 2.564097,-0.05343 0.106206,-1.7145 c 0.07726,-1.247234 0.03713,-1.831317 -0.147267,-2.143125 l -0.253476,-0.428658 h -6.649501 c -5.791002,0 -6.688151,0.03865 -6.948859,0.299357 -0.26365,0.263649 -0.299358,1.367213 -0.299358,9.251771 0,5.80683 0.06929,9.08189 0.197203,9.3209 0.185111,0.34588 0.43636,0.36847 4.097615,0.36847 3.55391,0 3.927118,-0.0312 4.201025,-0.35109 z m 13.453262,0.0177 c 0.160135,-0.18336 0.351439,-0.88959 0.425122,-1.56941 0.07368,-0.67981 0.234556,-1.3 0.357497,-1.3782 0.122941,-0.0782 0.661871,-0.1435 1.197623,-0.1451 l 0.974094,-0.003 0.226977,1.19063 c 0.124837,0.65484 0.332647,1.40494 0.461797,1.66687 l 0.23482,0.47625 3.8556,0.0516 c 4.37408,0.0585 4.71749,-0.0154 4.52404,-0.97341 -0.0669,-0.3312 -0.19419,-0.98794 -0.28291,-1.45943 -0.0887,-0.47149 -0.24827,-1.11442 -0.35456,-1.42875 -0.56354,-1.66656 -0.80332,-2.58277 -0.80438,-3.07357 -6.4e-4,-0.30026 -0.12923,-0.79147 -0.28575,-1.09158 -0.15652,-0.30011 -0.28415,-0.72873 -0.28363,-0.9525 5.2e-4,-0.22377 -0.12054,-0.79261 -0.26901,-1.2641 -0.36783,-1.16804 -0.6741,-2.38888 -0.88011,-3.508241 -0.0948,-0.515072 -0.261,-1.025135 -0.36934,-1.133475 -0.10834,-0.10834 -0.19698,-0.47814 -0.19698,-0.821777 0,-0.343637 -0.12129,-0.947999 -0.26952,-1.343025 -0.14823,-0.395027 -0.31859,-0.943122 -0.37858,-1.21799 -0.19042,-0.872567 -0.69621,-0.939636 -6.670741,-0.884542 l -5.509088,0.0508 -0.330376,0.5715 c -0.181707,0.314325 -0.392101,1.042987 -0.467543,1.61925 -0.07544,0.576262 -0.209711,1.139121 -0.298374,1.250796 -0.08866,0.111676 -0.218358,0.711751 -0.288208,1.3335 -0.06985,0.62175 -0.204006,1.228532 -0.298124,1.348412 -0.09412,0.11987 -0.222803,0.67709 -0.285967,1.23825 -0.06316,0.56116 -0.180766,1.10602 -0.261336,1.21079 -0.08057,0.10478 -0.203914,0.61913 -0.274098,1.143 -0.07018,0.52388 -0.249657,1.27571 -0.398828,1.67073 -0.149171,0.39503 -0.272511,0.95224 -0.274089,1.23825 -0.0016,0.28601 -0.126402,0.86292 -0.277388,1.28202 -0.150986,0.4191 -0.278283,1.03081 -0.282882,1.35935 -0.0046,0.32854 -0.136421,0.84289 -0.292938,1.143 -0.285714,0.54783 -0.397502,2.37182 -0.159923,2.6094 0.06985,0.0699 1.942513,0.127 4.161475,0.127 3.604442,0 4.065509,-0.0355 4.325628,-0.33337 z m 0.836167,-7.8105 c 0.05966,-0.49768 0.229475,-1.3467 0.377356,-1.8867 0.147881,-0.54 0.270187,-1.26866 0.271792,-1.61925 0.0016,-0.35058 0.08602,-0.76602 0.187582,-0.92318 0.142996,-0.22127 0.185325,-0.16299 0.187583,0.25825 0.0016,0.29921 0.122524,1.02787 0.268709,1.61925 0.146185,0.59139 0.316321,1.61103 0.378079,2.26588 l 0.112288,1.19062 h -0.945935 -0.945935 z m 48.875347,7.8286 c 0.28633,-0.25912 0.34838,-0.60862 0.34838,-1.96215 0,-1.02691 -0.0861,-1.73293 -0.2286,-1.87548 -0.15721,-0.1572 -1.10913,-0.2286 -3.048,-0.2286 h -2.8194 v -1.7145 -1.7145 l 0.61912,-0.0135 c 0.34052,-0.007 1.26488,-0.002 2.05414,0.011 0.78926,0.0135 1.67117,-0.0653 1.9598,-0.17506 l 0.52479,-0.19952 -0.0548,-1.76412 -0.0548,-1.76411 -2.53204,-0.0532 -2.53204,-0.0532 0.0555,-1.47079 0.0555,-1.470788 2.60427,-0.09525 c 1.43235,-0.05239 2.6507,-0.142023 2.70744,-0.19919 0.0894,-0.09006 0.18743,-2.573763 0.13568,-3.437357 -0.0398,-0.66449 -0.83359,-0.745025 -7.31373,-0.742036 -3.65122,0.0017 -6.44596,0.07925 -6.61091,0.183481 -0.43429,0.274424 -0.51854,17.95856 -0.0887,18.6146 l 0.28797,0.4395 h 6.79098 c 6.05175,0 6.82891,-0.0343 7.13936,-0.31527 z m 15.33817,0.1657 c 0.27917,-0.17751 0.46467,-3.19159 0.23381,-3.79882 -0.15867,-0.41733 -0.2481,-0.43311 -2.45539,-0.43311 h -2.29071 v -7.24371 -7.243718 l -0.51739,-0.19671 c -0.7047,-0.267927 -7.7739,-0.152325 -8.05738,0.131762 -0.3027,0.303346 -0.28137,18.306366 0.0221,18.672056 0.17641,0.21257 1.40455,0.26127 6.52809,0.25891 3.47094,-0.002 6.41252,-0.0676 6.53684,-0.14666 z m 15.30015,-0.23224 c 0.11621,-0.21715 0.18072,-1.14141 0.14957,-2.14313 l -0.0548,-1.76131 -2.32262,-0.0534 c -2.00154,-0.046 -2.33666,-0.0987 -2.42419,-0.381 -0.0559,-0.18018 -0.0822,-3.38796 -0.0586,-7.1284 0.0339,-5.364898 -0.009,-6.853097 -0.20425,-7.048498 -0.34209,-0.342789 -7.28666,-0.464312 -8.06682,-0.14116 l -0.54424,0.225433 v 9.206675 c 0,8.56729 0.0231,9.22016 0.33338,9.40084 0.2077,0.12098 2.71861,0.19636 6.66079,0.19997 6.14,0.006 6.33348,-0.006 6.53177,-0.37602 z m 9.45012,-16.392957 c 1.31227,-0.680892 2.40546,-1.796141 2.93578,-2.995018 0.55352,-1.251326 0.53006,-3.736158 -0.0458,-4.846473 -0.5651,-1.089662 -1.94877,-2.4495729 -3.0186,-2.9667649 -1.07403,-0.519225 -3.66752,-0.59598 -4.55909,-0.134927 -1.85081,0.95709 -3.03353,2.1636729 -3.34764,3.4151729 -0.0682,0.271632 -0.20018,0.540989 -0.29335,0.59857 -0.22098,0.136574 -0.22098,3.075842 0,3.212416 0.0932,0.05758 0.22383,0.321591 0.29037,0.586689 0.18269,0.727909 1.06771,1.879219 1.91852,2.495789 1.31653,0.954064 1.99827,1.184908 3.54802,1.201394 1.26193,0.01342 1.59481,-0.05995 2.57175,-0.566848 z m -4.40231,-1.199788 c -1.12664,-0.544543 -1.82463,-1.282351 -2.39258,-2.529061 -0.82568,-1.812481 -0.0391,-4.204419 1.77939,-5.4113239 0.92983,-0.617097 1.09285,-0.659399 2.51819,-0.653448 1.18145,0.0049 1.65246,0.08992 2.0955,0.378094 0.67546,0.4393489 1.61925,1.3360859 1.61925,1.5385159 0,0.07839 0.15002,0.308297 0.33338,0.510904 0.26085,0.288237 0.33256,0.70592 0.32966,1.920001 -0.004,1.583065 -0.24254,2.293576 -1.09166,3.248717 -0.32159,0.361744 -0.33338,0.329314 -0.33338,-0.917404 0,-0.871889 -0.10485,-1.46991 -0.32226,-1.83795 -0.305,-0.516328 -0.30363,-0.566137 0.0257,-0.929993 0.53235,-0.588244 0.30046,-1.859594 -0.46374,-2.542465 -0.58067,-0.518869 -0.63698,-0.529062 -2.63114,-0.47625 l -2.03777,0.05397 -0.0953,3.048003 c -0.11757,3.762362 -0.10344,3.872029 0.5191,4.028276 0.70065,0.175853 1.0049,-0.333832 1.0049,-1.683436 v -1.10659 h 1.02514 1.02513 l 0.21312,0.846357 c 0.11721,0.465496 0.21311,1.026847 0.21311,1.247446 0,0.268885 0.19637,0.483657 0.59576,0.651588 l 0.59576,0.250498 -0.64338,0.322322 c -0.35386,0.177278 -1.15774,0.363111 -1.78639,0.412964 -0.93978,0.07453 -1.31234,0.0088 -2.0955,-0.369732 z m 0.85725,-5.552194 v -0.66675 h 0.92298 c 0.65386,0 1.01534,0.10207 1.23979,0.350079 0.29605,0.327132 0.29388,0.370836 -0.0331,0.66675 -0.2211,0.200095 -0.67751,0.316672 -1.23979,0.316672 h -0.88988 z"
       id="path1"
       inkscape:label="logo-vermelho" /></g></svg>
